<svg width="32" height="32" viewBox="0 0 32 32" fill="none" xmlns="http://www.w3.org/2000/svg">
<path d="M9 12.6377L16.2751 19.9128L23.5501 12.6377" stroke="#FF008C" stroke-width="11.1551" stroke-linecap="round"/>
<path d="M22.2773 10.2124C22.2773 10.2124 22.7492 12.2385 23.6372 13.1265C24.5253 14.0145 26.5513 14.4864 26.5513 14.4864C26.5513 14.4864 24.5253 14.9583 23.6372 15.8463C22.7492 16.7343 22.2773 18.7604 22.2773 18.7604C22.2773 18.7604 21.8055 16.7343 20.9174 15.8463C20.0294 14.9583 18.0034 14.4864 18.0034 14.4864C18.0034 14.4864 20.0294 14.0145 20.9174 13.1265C21.8055 12.2385 22.2773 10.2124 22.2773 10.2124Z" fill="white"/>
<path d="M26.0537 9C26.0537 9 25.8196 9.77092 25.9455 10.2407C26.0714 10.7105 26.6596 11.2611 26.6596 11.2611C26.6596 11.2611 25.8887 11.0271 25.4189 11.1529C24.9491 11.2788 24.3985 11.867 24.3985 11.867C24.3985 11.867 24.6325 11.0961 24.5066 10.6263C24.3808 10.1565 23.7926 9.60587 23.7926 9.60587C23.7926 9.60587 24.5635 9.83993 25.0333 9.71405C25.5031 9.58817 26.0537 9 26.0537 9Z" fill="white"/>
</svg>
