<svg width="230" height="100" viewBox="0 0 230 100" fill="none" xmlns="http://www.w3.org/2000/svg">
<path d="M188.975 65.8462C185.868 65.8462 183.085 65.3187 180.623 64.2638C178.162 63.1502 176.198 61.5678 174.733 59.5165C173.326 57.4067 172.623 54.8572 172.623 51.8682C172.623 48.8792 173.326 46.3883 174.733 44.3957C176.198 42.3444 178.191 40.8206 180.711 39.8242C183.29 38.7693 186.22 38.2418 189.502 38.2418H201.458V35.7803C201.458 33.729 200.814 32.0587 199.524 30.7693C198.235 29.4213 196.183 28.7473 193.37 28.7473C190.616 28.7473 188.564 29.392 187.216 30.6814C185.868 31.9121 184.989 33.5239 184.579 35.5165L174.381 32.088C175.085 29.8609 176.198 27.8389 177.722 26.022C179.304 24.1466 181.385 22.6521 183.964 21.5385C186.601 20.3664 189.795 19.7803 193.546 19.7803C199.29 19.7803 203.832 21.2162 207.172 24.088C210.513 26.9598 212.183 31.1209 212.183 36.5715V52.8352C212.183 54.5935 213.004 55.4726 214.645 55.4726H218.162V64.6154H210.777C208.608 64.6154 206.821 64.088 205.414 63.033C204.008 61.9781 203.304 60.5715 203.304 58.8132V58.7253H201.634C201.4 59.4286 200.872 60.3664 200.052 61.5385C199.231 62.6521 197.942 63.6484 196.183 64.5275C194.425 65.4067 192.022 65.8462 188.975 65.8462ZM190.909 56.8792C194.015 56.8792 196.535 56.0294 198.469 54.3297C200.462 52.5715 201.458 50.2565 201.458 47.3847V46.5056H190.293C188.242 46.5056 186.63 46.9451 185.458 47.8242C184.286 48.7034 183.7 49.9341 183.7 51.5165C183.7 53.099 184.315 54.3883 185.546 55.3847C186.777 56.381 188.564 56.8792 190.909 56.8792Z" fill="#250065"/>
<path d="M125.659 64.6153V21.0109H136.56V26.7252H138.143C138.846 25.2014 140.165 23.7655 142.099 22.4175C144.033 21.0109 146.963 20.3076 150.89 20.3076C154.289 20.3076 157.249 21.0988 159.769 22.6812C162.348 24.205 164.341 26.3442 165.747 29.0988C167.154 31.7948 167.857 34.9596 167.857 38.5933V64.6153H156.78V39.4724C156.78 36.1904 155.96 33.7289 154.319 32.0878C152.736 30.4468 150.45 29.6263 147.461 29.6263C144.062 29.6263 141.425 30.7692 139.549 33.0549C137.674 35.282 136.736 38.4175 136.736 42.4615V64.6153H125.659Z" fill="#250065"/>
<path d="M92.7686 65.8462C89.6624 65.8462 86.8785 65.3187 84.417 64.2638C81.9555 63.1502 79.9921 61.5678 78.5269 59.5165C77.1203 57.4067 76.417 54.8572 76.417 51.8682C76.417 48.8792 77.1203 46.3883 78.5269 44.3957C79.9921 42.3444 81.9848 40.8206 84.5049 39.8242C87.0837 38.7693 90.0141 38.2418 93.2961 38.2418H105.252V35.7803C105.252 33.729 104.607 32.0587 103.318 30.7693C102.029 29.4213 99.9774 28.7473 97.1642 28.7473C94.4097 28.7473 92.3584 29.392 91.0104 30.6814C89.6624 31.9121 88.7833 33.5239 88.373 35.5165L78.1752 32.088C78.8785 29.8609 79.9921 27.8389 81.5159 26.022C83.0983 24.1466 85.1789 22.6521 87.7577 21.5385C90.395 20.3664 93.5892 19.7803 97.3401 19.7803C103.084 19.7803 107.626 21.2162 110.966 24.088C114.307 26.9598 115.977 31.1209 115.977 36.5715V52.8352C115.977 54.5935 116.798 55.4726 118.439 55.4726H121.955V64.6154H114.571C112.402 64.6154 110.615 64.088 109.208 63.033C107.802 61.9781 107.098 60.5715 107.098 58.8132V58.7253H105.428C105.194 59.4286 104.666 60.3664 103.846 61.5385C103.025 62.6521 101.736 63.6484 99.9774 64.5275C98.2192 65.4067 95.8163 65.8462 92.7686 65.8462ZM94.7027 56.8792C97.8089 56.8792 100.329 56.0294 102.263 54.3297C104.256 52.5715 105.252 50.2565 105.252 47.3847V46.5056H94.0873C92.036 46.5056 90.4243 46.9451 89.2522 47.8242C88.08 48.7034 87.4939 49.9341 87.4939 51.5165C87.4939 53.099 88.1093 54.3883 89.3401 55.3847C90.5708 56.381 92.3584 56.8792 94.7027 56.8792Z" fill="#250065"/>
<path d="M16.4834 32.7476L32.9669 49.2311L49.4504 32.7476" stroke="#FF008C" stroke-width="25.2747" stroke-linecap="round"/>
<path d="M46.5664 27.2524C46.5664 27.2524 47.6356 31.843 49.6476 33.855C51.6596 35.8671 56.2502 36.9362 56.2502 36.9362C56.2502 36.9362 51.6596 38.0054 49.6476 40.0174C47.6356 42.0295 46.5664 46.62 46.5664 46.62C46.5664 46.62 45.4972 42.0295 43.4852 40.0174C41.4732 38.0054 36.8826 36.9362 36.8826 36.9362C36.8826 36.9362 41.4732 35.8671 43.4852 33.855C45.4972 31.843 46.5664 27.2524 46.5664 27.2524Z" fill="white"/>
<path d="M55.123 24.5054C55.123 24.5054 54.5927 26.2521 54.8779 27.3165C55.1632 28.381 56.4958 29.6285 56.4958 29.6285C56.4958 29.6285 54.7491 29.0982 53.6846 29.3834C52.6202 29.6686 51.3726 31.0013 51.3726 31.0013C51.3726 31.0013 51.903 29.2545 51.6178 28.1901C51.3325 27.1257 49.9999 25.8781 49.9999 25.8781C49.9999 25.8781 51.7466 26.4084 52.8111 26.1232C53.8755 25.838 55.123 24.5054 55.123 24.5054Z" fill="white"/>
<path d="M80.6241 83.6157H76.6153L75.8769 85.6597H74.6109L77.934 76.5212H79.3186L82.6285 85.6597H81.3626L80.6241 83.6157ZM80.2813 82.6399L78.6197 77.9981L76.9582 82.6399H80.2813ZM86.6351 85.7783C86.0812 85.7783 85.5845 85.686 85.1449 85.5014C84.7054 85.308 84.3581 85.0443 84.1032 84.7102C83.8482 84.3674 83.7076 83.9762 83.6812 83.5366H84.9208C84.9559 83.897 85.123 84.1915 85.4219 84.4201C85.7296 84.6487 86.1296 84.763 86.6219 84.763C87.079 84.763 87.4394 84.6619 87.7032 84.4597C87.9669 84.2575 88.0988 84.0025 88.0988 83.6948C88.0988 83.3783 87.9581 83.1454 87.6768 82.9959C87.3955 82.8377 86.9603 82.6838 86.3713 82.5344C85.8351 82.3937 85.3955 82.2531 85.0526 82.1124C84.7186 81.963 84.4285 81.7476 84.1823 81.4663C83.9449 81.1762 83.8263 80.7981 83.8263 80.3322C83.8263 79.963 83.9362 79.6245 84.1559 79.3168C84.3757 79.0091 84.6878 78.7674 85.0922 78.5915C85.4966 78.4069 85.9581 78.3146 86.4768 78.3146C87.2768 78.3146 87.923 78.5168 88.4153 78.9212C88.9076 79.3256 89.1713 79.8794 89.2065 80.5827H88.0065C87.9801 80.2047 87.8263 79.9014 87.5449 79.6729C87.2724 79.4443 86.9032 79.33 86.4373 79.33C86.0065 79.33 85.6636 79.4223 85.4087 79.6069C85.1537 79.7915 85.0263 80.0333 85.0263 80.3322C85.0263 80.5696 85.101 80.7674 85.2504 80.9256C85.4087 81.0751 85.6021 81.1981 85.8307 81.2948C86.068 81.3827 86.3933 81.4838 86.8065 81.5981C87.3252 81.7388 87.7471 81.8794 88.0724 82.0201C88.3977 82.152 88.6746 82.3542 88.9032 82.6267C89.1405 82.8992 89.2636 83.2553 89.2724 83.6948C89.2724 84.0904 89.1625 84.4465 88.9427 84.763C88.723 85.0794 88.4109 85.33 88.0065 85.5146C87.6109 85.6904 87.1537 85.7783 86.6351 85.7783ZM91.5862 77.2597C91.3576 77.2597 91.1642 77.1805 91.006 77.0223C90.8477 76.8641 90.7686 76.6707 90.7686 76.4421C90.7686 76.2135 90.8477 76.0201 91.006 75.8619C91.1642 75.7036 91.3576 75.6245 91.5862 75.6245C91.806 75.6245 91.9906 75.7036 92.14 75.8619C92.2983 76.0201 92.3774 76.2135 92.3774 76.4421C92.3774 76.6707 92.2983 76.8641 92.14 77.0223C91.9906 77.1805 91.806 77.2597 91.5862 77.2597ZM92.1664 78.4333V85.6597H90.9664V78.4333H92.1664ZM96.7698 85.7783C96.216 85.7783 95.7193 85.686 95.2797 85.5014C94.8402 85.308 94.4929 85.0443 94.238 84.7102C93.983 84.3674 93.8424 83.9762 93.816 83.5366H95.0556C95.0907 83.897 95.2578 84.1915 95.5567 84.4201C95.8643 84.6487 96.2643 84.763 96.7567 84.763C97.2138 84.763 97.5742 84.6619 97.838 84.4597C98.1017 84.2575 98.2336 84.0025 98.2336 83.6948C98.2336 83.3783 98.0929 83.1454 97.8116 82.9959C97.5303 82.8377 97.0951 82.6838 96.5061 82.5344C95.9698 82.3937 95.5303 82.2531 95.1874 82.1124C94.8534 81.963 94.5632 81.7476 94.3171 81.4663C94.0797 81.1762 93.961 80.7981 93.961 80.3322C93.961 79.963 94.0709 79.6245 94.2907 79.3168C94.5105 79.0091 94.8226 78.7674 95.227 78.5915C95.6314 78.4069 96.0929 78.3146 96.6116 78.3146C97.4116 78.3146 98.0578 78.5168 98.5501 78.9212C99.0424 79.3256 99.3061 79.8794 99.3413 80.5827H98.1413C98.1149 80.2047 97.961 79.9014 97.6797 79.6729C97.4072 79.4443 97.038 79.33 96.572 79.33C96.1413 79.33 95.7984 79.4223 95.5435 79.6069C95.2885 79.7915 95.161 80.0333 95.161 80.3322C95.161 80.5696 95.2358 80.7674 95.3852 80.9256C95.5435 81.0751 95.7369 81.1981 95.9654 81.2948C96.2028 81.3827 96.5281 81.4838 96.9413 81.5981C97.4599 81.7388 97.8819 81.8794 98.2072 82.0201C98.5325 82.152 98.8094 82.3542 99.038 82.6267C99.2753 82.8992 99.3984 83.2553 99.4072 83.6948C99.4072 84.0904 99.2973 84.4465 99.0775 84.763C98.8578 85.0794 98.5457 85.33 98.1413 85.5146C97.7457 85.6904 97.2885 85.7783 96.7698 85.7783ZM102.565 79.4223V83.6816C102.565 84.0333 102.64 84.2838 102.789 84.4333C102.939 84.574 103.198 84.6443 103.567 84.6443H104.451V85.6597H103.369C102.701 85.6597 102.2 85.5058 101.866 85.1981C101.532 84.8904 101.365 84.3849 101.365 83.6816V79.4223H100.429V78.4333H101.365V76.6135H102.565V78.4333H104.451V79.4223H102.565ZM112.498 81.7696C112.498 81.9981 112.485 82.2399 112.458 82.4948H106.683C106.727 83.2069 106.968 83.7652 107.408 84.1696C107.856 84.5652 108.397 84.763 109.03 84.763C109.549 84.763 109.979 84.6443 110.322 84.4069C110.674 84.1608 110.92 83.8355 111.061 83.4311H112.353C112.16 84.1256 111.773 84.6926 111.193 85.1322C110.612 85.563 109.891 85.7783 109.03 85.7783C108.344 85.7783 107.729 85.6245 107.184 85.3168C106.647 85.0091 106.225 84.574 105.918 84.0113C105.61 83.4399 105.456 82.7805 105.456 82.0333C105.456 81.286 105.606 80.6311 105.905 80.0685C106.203 79.5058 106.621 79.0751 107.157 78.7762C107.702 78.4685 108.327 78.3146 109.03 78.3146C109.716 78.3146 110.322 78.4641 110.85 78.763C111.377 79.0619 111.782 79.4751 112.063 80.0025C112.353 80.5212 112.498 81.1102 112.498 81.7696ZM111.258 81.519C111.258 81.0619 111.157 80.6707 110.955 80.3454C110.753 80.0113 110.476 79.7608 110.124 79.5937C109.782 79.4179 109.399 79.33 108.977 79.33C108.371 79.33 107.852 79.5234 107.421 79.9102C106.999 80.297 106.757 80.8333 106.696 81.519H111.258ZM117.603 78.3014C118.482 78.3014 119.194 78.5696 119.739 79.1058C120.284 79.6333 120.557 80.3981 120.557 81.4003V85.6597H119.37V81.5718C119.37 80.8509 119.19 80.3014 118.829 79.9234C118.469 79.5366 117.976 79.3432 117.352 79.3432C116.719 79.3432 116.214 79.541 115.836 79.9366C115.467 80.3322 115.282 80.908 115.282 81.6641V85.6597H114.082V78.4333H115.282V79.4619C115.519 79.0926 115.84 78.8069 116.245 78.6047C116.658 78.4025 117.111 78.3014 117.603 78.3014ZM123.981 79.4223V83.6816C123.981 84.0333 124.055 84.2838 124.205 84.4333C124.354 84.574 124.614 84.6443 124.983 84.6443H125.866V85.6597H124.785C124.117 85.6597 123.616 85.5058 123.282 85.1981C122.948 84.8904 122.781 84.3849 122.781 83.6816V79.4223H121.844V78.4333H122.781V76.6135H123.981V78.4333H125.866V79.4223H123.981ZM138.062 85.6597H136.862L132.036 78.341V85.6597H130.836V76.4553H132.036L136.862 83.7608V76.4553H138.062V85.6597ZM139.66 82.0201C139.66 81.2816 139.809 80.6355 140.108 80.0816C140.407 79.519 140.816 79.0838 141.334 78.7762C141.862 78.4685 142.446 78.3146 143.088 78.3146C143.721 78.3146 144.271 78.4509 144.736 78.7234C145.202 78.9959 145.55 79.3388 145.778 79.752V78.4333H146.991V85.6597H145.778V84.3146C145.541 84.7366 145.185 85.0882 144.71 85.3696C144.244 85.6421 143.699 85.7783 143.075 85.7783C142.433 85.7783 141.853 85.6201 141.334 85.3036C140.816 84.9871 140.407 84.5432 140.108 83.9718C139.809 83.4003 139.66 82.7498 139.66 82.0201ZM145.778 82.0333C145.778 81.4882 145.668 81.0135 145.449 80.6091C145.229 80.2047 144.93 79.897 144.552 79.686C144.183 79.4663 143.774 79.3564 143.325 79.3564C142.877 79.3564 142.468 79.4619 142.099 79.6729C141.73 79.8838 141.435 80.1915 141.216 80.5959C140.996 81.0003 140.886 81.4751 140.886 82.0201C140.886 82.574 140.996 83.0575 141.216 83.4707C141.435 83.8751 141.73 84.1871 142.099 84.4069C142.468 84.6179 142.877 84.7234 143.325 84.7234C143.774 84.7234 144.183 84.6179 144.552 84.4069C144.93 84.1871 145.229 83.8751 145.449 83.4707C145.668 83.0575 145.778 82.5783 145.778 82.0333ZM150.483 79.4223V83.6816C150.483 84.0333 150.558 84.2838 150.707 84.4333C150.857 84.574 151.116 84.6443 151.485 84.6443H152.369V85.6597H151.287C150.619 85.6597 150.118 85.5058 149.784 85.1981C149.45 84.8904 149.283 84.3849 149.283 83.6816V79.4223H148.347V78.4333H149.283V76.6135H150.483V78.4333H152.369V79.4223H150.483ZM154.442 77.2597C154.214 77.2597 154.02 77.1805 153.862 77.0223C153.704 76.8641 153.625 76.6707 153.625 76.4421C153.625 76.2135 153.704 76.0201 153.862 75.8619C154.02 75.7036 154.214 75.6245 154.442 75.6245C154.662 75.6245 154.847 75.7036 154.996 75.8619C155.155 76.0201 155.234 76.2135 155.234 76.4421C155.234 76.6707 155.155 76.8641 154.996 77.0223C154.847 77.1805 154.662 77.2597 154.442 77.2597ZM155.023 78.4333V85.6597H153.823V78.4333H155.023ZM160.22 85.7783C159.543 85.7783 158.927 85.6245 158.373 85.3168C157.828 85.0091 157.398 84.574 157.081 84.0113C156.773 83.4399 156.62 82.7805 156.62 82.0333C156.62 81.2948 156.778 80.6443 157.094 80.0816C157.42 79.5102 157.859 79.0751 158.413 78.7762C158.967 78.4685 159.587 78.3146 160.272 78.3146C160.958 78.3146 161.578 78.4685 162.132 78.7762C162.685 79.0751 163.121 79.5058 163.437 80.0685C163.762 80.6311 163.925 81.286 163.925 82.0333C163.925 82.7805 163.758 83.4399 163.424 84.0113C163.099 84.574 162.655 85.0091 162.092 85.3168C161.529 85.6245 160.905 85.7783 160.22 85.7783ZM160.22 84.7234C160.65 84.7234 161.055 84.6223 161.433 84.4201C161.811 84.2179 162.114 83.9146 162.343 83.5102C162.58 83.1058 162.699 82.6135 162.699 82.0333C162.699 81.4531 162.584 80.9608 162.356 80.5564C162.127 80.152 161.828 79.8531 161.459 79.6597C161.09 79.4575 160.69 79.3564 160.259 79.3564C159.82 79.3564 159.415 79.4575 159.046 79.6597C158.685 79.8531 158.395 80.152 158.176 80.5564C157.956 80.9608 157.846 81.4531 157.846 82.0333C157.846 82.6223 157.951 83.119 158.162 83.5234C158.382 83.9278 158.672 84.2311 159.033 84.4333C159.393 84.6267 159.789 84.7234 160.22 84.7234ZM169.024 78.3014C169.903 78.3014 170.615 78.5696 171.16 79.1058C171.705 79.6333 171.978 80.3981 171.978 81.4003V85.6597H170.791V81.5718C170.791 80.8509 170.61 80.3014 170.25 79.9234C169.89 79.5366 169.397 79.3432 168.773 79.3432C168.14 79.3432 167.635 79.541 167.257 79.9366C166.887 80.3322 166.703 80.908 166.703 81.6641V85.6597H165.503V78.4333H166.703V79.4619C166.94 79.0926 167.261 78.8069 167.665 78.6047C168.079 78.4025 168.531 78.3014 169.024 78.3014ZM173.489 82.0201C173.489 81.2816 173.639 80.6355 173.938 80.0816C174.237 79.519 174.645 79.0838 175.164 78.7762C175.692 78.4685 176.276 78.3146 176.918 78.3146C177.551 78.3146 178.1 78.4509 178.566 78.7234C179.032 78.9959 179.379 79.3388 179.608 79.752V78.4333H180.821V85.6597H179.608V84.3146C179.371 84.7366 179.015 85.0882 178.54 85.3696C178.074 85.6421 177.529 85.7783 176.905 85.7783C176.263 85.7783 175.683 85.6201 175.164 85.3036C174.645 84.9871 174.237 84.5432 173.938 83.9718C173.639 83.4003 173.489 82.7498 173.489 82.0201ZM179.608 82.0333C179.608 81.4882 179.498 81.0135 179.278 80.6091C179.059 80.2047 178.76 79.897 178.382 79.686C178.012 79.4663 177.604 79.3564 177.155 79.3564C176.707 79.3564 176.298 79.4619 175.929 79.6729C175.56 79.8838 175.265 80.1915 175.045 80.5959C174.826 81.0003 174.716 81.4751 174.716 82.0201C174.716 82.574 174.826 83.0575 175.045 83.4707C175.265 83.8751 175.56 84.1871 175.929 84.4069C176.298 84.6179 176.707 84.7234 177.155 84.7234C177.604 84.7234 178.012 84.6179 178.382 84.4069C178.76 84.1871 179.059 83.8751 179.278 83.4707C179.498 83.0575 179.608 82.5783 179.608 82.0333ZM184.049 75.9014V85.6597H182.849V75.9014H184.049ZM189.162 82.0333C189.162 81.286 189.311 80.6355 189.61 80.0816C189.909 79.519 190.322 79.0838 190.85 78.7762C191.386 78.4685 191.997 78.3146 192.682 78.3146C193.57 78.3146 194.3 78.53 194.871 78.9608C195.452 79.3915 195.834 79.9893 196.019 80.7542H194.726C194.603 80.3146 194.362 79.9674 194.001 79.7124C193.65 79.4575 193.21 79.33 192.682 79.33C191.997 79.33 191.443 79.5674 191.021 80.0421C190.599 80.508 190.388 81.1718 190.388 82.0333C190.388 82.9036 190.599 83.5762 191.021 84.0509C191.443 84.5256 191.997 84.763 192.682 84.763C193.21 84.763 193.65 84.6399 194.001 84.3937C194.353 84.1476 194.595 83.7959 194.726 83.3388H196.019C195.825 84.0773 195.439 84.6707 194.858 85.119C194.278 85.5586 193.553 85.7783 192.682 85.7783C191.997 85.7783 191.386 85.6245 190.85 85.3168C190.322 85.0091 189.909 84.574 189.61 84.0113C189.311 83.4487 189.162 82.7893 189.162 82.0333ZM204.029 78.4333V85.6597H202.829V84.5915C202.6 84.9608 202.279 85.2509 201.866 85.4619C201.462 85.6641 201.013 85.7652 200.521 85.7652C199.958 85.7652 199.453 85.6509 199.005 85.4223C198.556 85.1849 198.2 84.8333 197.936 84.3674C197.681 83.9014 197.554 83.3344 197.554 82.6663V78.4333H198.741V82.508C198.741 83.2201 198.921 83.7696 199.281 84.1564C199.642 84.5344 200.134 84.7234 200.758 84.7234C201.4 84.7234 201.906 84.5256 202.275 84.13C202.644 83.7344 202.829 83.1586 202.829 82.4025V78.4333H204.029ZM215.003 83.6157H210.995L210.256 85.6597H208.99L212.313 76.5212H213.698L217.008 85.6597H215.742L215.003 83.6157ZM214.661 82.6399L212.999 77.9981L211.337 82.6399H214.661ZM219.656 76.4685V85.6597H218.456V76.4685H219.656Z" fill="#734DB4"/>
</svg>
