<?xml version="1.0" encoding="utf-8"?>
<!-- Generator: Adobe Illustrator 25.1.0, SVG Export Plug-In . SVG Version: 6.00 Build 0)  -->
<svg version="1.1" id="Layer_1" xmlns="http://www.w3.org/2000/svg" xmlns:xlink="http://www.w3.org/1999/xlink" x="0px" y="0px"
	 viewBox="0 0 200 50" style="enable-background:new 0 0 200 50;" xml:space="preserve">
<style type="text/css">
	.st0{fill:url(#SVGID_1_);}
	.st1{fill:url(#SVGID_2_);}
	.st2{fill:url(#SVGID_3_);}
	.st3{opacity:0.15;fill:#DD772A;enable-background:new    ;}
	.st4{fill:#01193F;}
</style>
<g>
	<g>
		<g>
			
				<linearGradient id="SVGID_1_" gradientUnits="userSpaceOnUse" x1="2.2125" y1="6.0415" x2="13.177" y2="29.798" gradientTransform="matrix(1 0 0 1 0 2)">
				<stop  offset="0" style="stop-color:#EFB135"/>
				<stop  offset="1" style="stop-color:#FFC442"/>
			</linearGradient>
			<path class="st0" d="M22.3,36l8.7,5v0.1c0,3.4-1.7,6-4.3,7.5c-2.6,1.5-5.9,1.9-8.9,0.1l-9.5-5.5C3.1,40.4,0,35,0,29V16.7
				c0-3.5,1.9-6.3,4.5-7.8c2.6-1.4,5.8-1.6,8.7,0.1l0.1,0.1v12.3c0,2.9,0.8,5.8,2.2,8.2s3.5,4.5,6,6L22.3,36z"/>
		</g>
		
			<linearGradient id="SVGID_2_" gradientUnits="userSpaceOnUse" x1="40.4132" y1="19.645" x2="3.4993" y2="-6.3044" gradientTransform="matrix(1 0 0 1 0 2)">
			<stop  offset="0" style="stop-color:#395EF3"/>
			<stop  offset="1" style="stop-color:#2951CE"/>
		</linearGradient>
		<path class="st1" d="M41.1,13.4l-7.3,4.2c-1.7,1-4.1,1-5.8,0L13.4,9.1l-0.1-0.1c-2.9-1.6-6.2-1.4-8.7,0l13.2-7.7
			c2.6-1.5,5.9-1.7,8.8,0l14.5,8.4C42.6,10.5,42.6,12.5,41.1,13.4z"/>
		
			<linearGradient id="SVGID_3_" gradientUnits="userSpaceOnUse" x1="35.5401" y1="50.3375" x2="35.5401" y2="25.6493" gradientTransform="matrix(1 0 0 1 0 2)">
			<stop  offset="0" style="stop-color:#C6124E"/>
			<stop  offset="1" style="stop-color:#EA115F"/>
		</linearGradient>
		<path class="st2" d="M37.5,22.9l-10.2,5.9c-0.7,0.5-0.7,1.5,0,1.9l2.1,1.2c0.9,0.6,1.6,1.6,1.6,2.7V41v0.1c0,3.4-1.7,6-4.3,7.5
			L40,41c2.6-1.5,4.4-4.3,4.4-7.7v-6.7c0-1-0.6-2.1-1.5-2.7l-2.2-1.3C39.7,22.3,38.4,22.3,37.5,22.9z"/>
		<path class="st3" d="M13.4,9.1l-0.1-0.1c-2.9-1.6-6.2-1.4-8.7,0C1.9,10.5,0,13.2,0,16.7v2.2l13.5-7.7L13.4,9.1L13.4,9.1z"/>
	</g>
	<g>
		<g>
			<path class="st4" d="M80.6,23c0-0.2,0-0.6-0.1-0.7h-9.8v3.6h5.8l0,0c0,0.6-0.1,1.2-0.5,1.7c-0.2,0.6-0.7,1-1.2,1.4
				c-0.5,0.3-1,0.7-1.7,0.9c-0.7,0.2-1.4,0.3-2.1,0.3c-1,0-2-0.2-2.8-0.6c-0.9-0.3-1.6-0.9-2.3-1.6s-1.2-1.5-1.6-2.3
				c-0.3-0.9-0.6-1.9-0.6-2.9c0-1,0.2-2,0.6-2.9c0.3-0.9,0.9-1.6,1.5-2.3c0.7-0.7,1.4-1.2,2.2-1.5c0.8-0.3,1.9-0.6,2.8-0.6
				c0.7,0,1.4,0.1,2,0.3c0.6,0.2,1.3,0.5,1.9,0.8c0.6,0.3,1.2,0.8,1.7,1.4l2.6-2.7c-0.6-0.7-1.3-1.3-2.1-1.9
				c-0.8-0.6-1.7-0.9-2.8-1.3c-1-0.3-2.1-0.5-3.3-0.5c-1.6,0-3,0.2-4.4,0.8c-1.4,0.6-2.6,1.3-3.6,2.3c-1,1-1.9,2.2-2.3,3.5
				c-0.6,1.4-0.8,2.8-0.8,4.3c0,1.6,0.2,3,0.8,4.4c0.6,1.4,1.3,2.6,2.3,3.5c1,1,2.2,1.7,3.6,2.3c1.4,0.6,2.9,0.8,4.4,0.8
				c1.4,0,2.7-0.2,3.8-0.7c1.2-0.5,2.2-1.2,3.1-2c0.9-0.8,1.6-1.9,2.1-3c0.5-1.2,0.7-2.4,0.7-3.8c0-0.2,0-0.3,0-0.7
				C80.6,23.6,80.6,23.2,80.6,23z"/>
			<path class="st4" d="M95.2,17.9c-0.8-0.5-1.9-0.7-3-0.7c-0.8,0-1.7,0.2-2.6,0.6s-1.5,0.8-2.1,1.5c-0.2,0.2-0.3,0.3-0.5,0.6V11
				h-3.7v22.6c0.2,0,0.6,0,0.9,0s0.7,0,1,0h1.9v-9.8c0-0.5,0.1-0.9,0.3-1.4c0.2-0.5,0.5-0.8,0.8-1c0.3-0.3,0.7-0.6,1.2-0.7
				s0.9-0.2,1.5-0.2c0.7,0,1.3,0.1,1.7,0.3c0.5,0.2,0.8,0.7,1,1.2c0.2,0.6,0.3,1.2,0.3,2.1v9.5h3.7v-9.9c0-1.5-0.2-2.7-0.6-3.7
				C96.7,19,96.1,18.3,95.2,17.9z"/>
			<rect x="101.6" y="17.5" class="st4" width="3.7" height="16.1"/>
			<path class="st4" d="M103.5,9.6c-0.7,0-1.3,0.2-1.7,0.6c-0.5,0.5-0.7,0.9-0.7,1.6c0,0.7,0.2,1.3,0.6,1.6c0.5,0.3,1,0.6,1.7,0.6
				c0.7,0,1.4-0.2,1.7-0.6c0.5-0.5,0.7-0.9,0.7-1.5c0-0.7-0.2-1.3-0.6-1.6C104.9,9.9,104.3,9.6,103.5,9.6z"/>
			<path class="st4" d="M119.9,26c-0.3-0.5-0.9-0.8-1.6-1.2c-0.7-0.3-1.5-0.6-2.6-0.9c-0.7-0.1-1.3-0.3-1.7-0.5
				c-0.5-0.1-0.8-0.3-1-0.5c-0.2-0.1-0.3-0.3-0.5-0.6s-0.2-0.5-0.2-0.7c0-0.2,0-0.6,0.1-0.7c0.1-0.2,0.2-0.3,0.5-0.6
				c0.2-0.1,0.5-0.2,0.8-0.3s0.7-0.1,1-0.1c0.5,0,0.8,0.1,1.3,0.2s0.9,0.3,1.4,0.7c0.5,0.2,0.9,0.6,1.3,0.9l2.1-2.3
				c-0.5-0.6-1-0.9-1.7-1.4c-0.7-0.3-1.4-0.7-2.1-0.9c-0.8-0.2-1.5-0.3-2.3-0.3c-0.8,0-1.5,0.1-2.3,0.3c-0.7,0.2-1.4,0.6-2,0.9
				c-0.6,0.5-0.9,0.9-1.3,1.5c-0.3,0.6-0.5,1.3-0.5,2c0,0.6,0.1,1.2,0.2,1.6c0.1,0.5,0.5,0.9,0.8,1.3c0.5,0.5,0.9,0.9,1.7,1.3
				c0.7,0.3,1.6,0.7,2.8,1c0.7,0.1,1.3,0.3,1.7,0.5s0.8,0.3,0.9,0.5c0.3,0.2,0.6,0.7,0.6,1.2c0,0.2,0,0.5-0.1,0.7
				c-0.1,0.2-0.2,0.3-0.5,0.6c-0.2,0.1-0.5,0.2-0.7,0.3c-0.2,0.1-0.6,0.1-0.9,0.1c-0.8,0-1.6-0.1-2.4-0.5s-1.4-0.8-2.1-1.5l-2.4,2.1
				c0.7,0.9,1.6,1.6,2.8,2.1c1.2,0.5,2.4,0.7,3.8,0.7c1.2,0,2.2-0.2,3.1-0.7c0.9-0.5,1.6-1,2.2-1.7s0.8-1.6,0.8-2.6
				c0-0.6-0.1-1.2-0.2-1.6C120.6,26.8,120.3,26.4,119.9,26z"/>
			<path class="st4" d="M114.8,34.8c-0.7,0-1.2,0.1-1.6,0.5c-0.5,0.3-0.6,0.7-0.6,1.3c0,0.3,0.1,0.6,0.2,0.8s0.5,0.3,0.8,0.5
				c0.2,0.1,0.5,0.1,0.5,0.2c0.1,0.1,0.1,0.2,0.1,0.3c0,0.2-0.1,0.5-0.2,0.7c-0.2,0.2-0.5,0.5-0.7,0.6c-0.3,0.1-0.6,0.3-0.9,0.5
				l0.9,1.4c0.6-0.2,1.2-0.5,1.6-0.7c0.5-0.2,0.9-0.6,1.3-0.9c0.3-0.3,0.6-0.7,0.8-1.2c0.2-0.3,0.3-0.8,0.3-1.3c0-0.8-0.2-1.5-0.8-2
				C116.1,35.1,115.4,34.8,114.8,34.8z"/>
			<path class="st4" d="M136,19.4c-0.7-0.7-1.5-1.3-2.4-1.6c-0.9-0.5-1.9-0.6-3-0.6s-2.3,0.2-3.4,0.6c-1,0.5-1.9,1-2.6,1.7
				c-0.7,0.8-1.3,1.6-1.7,2.7c-0.5,1-0.6,2.2-0.6,3.5c0,1.6,0.3,3,1,4.3c0.7,1.3,1.7,2.2,3,2.9c1.3,0.7,2.8,1,4.5,1
				c0.7,0,1.5-0.1,2.3-0.3c0.8-0.2,1.5-0.5,2.2-0.8c0.7-0.3,1.3-0.8,1.9-1.3l-1.9-2.6c-0.7,0.6-1.4,1-2.1,1.3
				c-0.6,0.2-1.3,0.3-2.1,0.3c-1,0-2-0.2-2.8-0.6c-0.8-0.5-1.4-1-1.9-1.7c-0.3-0.5-0.5-1.2-0.6-1.7h12.1v-1.3c0-1.2-0.1-2.2-0.5-3.1
				C137.3,20.9,136.7,20.1,136,19.4z M128.2,21c0.7-0.3,1.5-0.6,2.6-0.6c0.7,0,1.3,0.1,1.7,0.5c0.6,0.2,0.9,0.7,1.3,1.2
				c0.3,0.5,0.6,1,0.6,1.6v0.1h-8.1c0.1-0.5,0.2-0.8,0.3-1.2C126.9,21.9,127.5,21.4,128.2,21z"/>
			<path class="st4" d="M151.5,27.2c0,0.5-0.1,0.9-0.2,1.4c-0.2,0.5-0.5,0.8-0.8,1.2c-0.3,0.3-0.7,0.6-1.2,0.7s-0.9,0.2-1.5,0.2
				c-0.7,0-1.3-0.1-1.9-0.5c-0.5-0.3-0.9-0.8-1.2-1.4c-0.2-0.6-0.3-1.3-0.3-2.2v-9.2h-3.7v10c0,1.4,0.2,2.6,0.7,3.5
				c0.5,0.9,1.2,1.7,2,2.2s1.9,0.8,3,0.8c0.9,0,1.7-0.2,2.6-0.6c0.8-0.3,1.5-0.8,2.1-1.4c0.2-0.2,0.5-0.5,0.6-0.7v2.4h3.7V17.5h-3.7
				L151.5,27.2L151.5,27.2z"/>
			<rect x="158.9" y="10.9" class="st4" width="3.8" height="22.6"/>
			<path class="st4" d="M167.7,29c-0.7,0-1.3,0.2-1.6,0.7c-0.3,0.5-0.6,1-0.6,1.7c0,0.8,0.2,1.4,0.6,1.9c0.3,0.5,0.9,0.7,1.7,0.7
				c0.7,0,1.3-0.2,1.6-0.7c0.5-0.5,0.6-1,0.6-1.7c0-0.8-0.2-1.4-0.6-1.9C169.1,29.3,168.5,29,167.7,29z"/>
			<path class="st4" d="M181.4,17.2c-0.8,0-1.5,0.2-2.3,0.6c-0.7,0.3-1.4,0.9-1.9,1.5c-0.2,0.3-0.5,0.7-0.7,0.9v-2.8h-3.7v16.1h3.8
				V25c0-0.6,0.1-1,0.3-1.5c0.2-0.5,0.5-0.8,0.8-1.2s0.7-0.6,1.2-0.8s0.9-0.3,1.5-0.3c0.3,0,0.7,0,0.9,0.1c0.3,0.1,0.6,0.2,0.8,0.3
				l1-4.2c-0.2-0.1-0.5-0.1-0.8-0.2C182.1,17.2,181.8,17.2,181.4,17.2z"/>
			<path class="st4" d="M199,21.3c-0.7-1.3-1.7-2.2-3-3c-1.3-0.8-2.7-1-4.3-1s-3,0.3-4.3,1s-2.2,1.7-3,3c-0.7,1.3-1.2,2.7-1.2,4.3
				c0,1.6,0.3,3,1.2,4.3c0.7,1.3,1.7,2.2,3,3c1.3,0.7,2.7,1,4.3,1s3-0.3,4.3-1c1.3-0.7,2.2-1.7,3-3c0.7-1.3,1-2.7,1-4.3
				C200,23.9,199.7,22.5,199,21.3z M195.6,28.1c-0.3,0.7-0.9,1.4-1.6,1.9c-0.7,0.5-1.5,0.7-2.3,0.7s-1.6-0.2-2.3-0.7
				c-0.7-0.5-1.3-1-1.6-1.9c-0.3-0.7-0.6-1.6-0.6-2.6s0.2-1.9,0.6-2.6c0.3-0.7,0.9-1.4,1.6-1.9c0.7-0.5,1.5-0.7,2.3-0.7
				s1.6,0.2,2.3,0.7c0.7,0.5,1.3,1,1.6,1.7c0.3,0.7,0.6,1.6,0.6,2.6C196.2,26.5,196.1,27.3,195.6,28.1z"/>
		</g>
	</g>
</g>
</svg>
