<svg width="40" height="40" viewBox="0 0 40 40" fill="none" xmlns="http://www.w3.org/2000/svg">
<path d="M16.5523 5.86115C18.0989 3.23193 21.9011 3.23193 23.4477 5.86115L36.4541 27.9719C38.0226 30.6385 36.1 34 33.0063 34H6.99367C3.9 34 1.97738 30.6385 3.54593 27.9719L16.5523 5.86115Z" fill="url(#paint0_linear_16_3574)"/>
<path d="M16.9834 6.11426C18.3367 3.81418 21.6633 3.81418 23.0166 6.11426L36.0234 28.2256C37.3956 30.5588 35.7127 33.5 33.0059 33.5H6.99414C4.28729 33.5 2.60436 30.5588 3.97656 28.2256L16.9834 6.11426Z" stroke="black" stroke-opacity="0.1"/>
<path d="M10.0862 19.749C10.0862 19.749 14.9606 19.2702 17.3063 17.4702C19.652 15.6703 21.3761 11.086 21.3761 11.086C21.3761 11.086 21.855 15.9603 23.6549 18.306C25.4548 20.6517 30.0391 22.3759 30.0391 22.3759C30.0391 22.3759 25.1648 22.8547 22.8191 24.6547C20.4734 26.4546 18.7492 31.0389 18.7492 31.0389C18.7492 31.0389 18.2704 26.1646 16.4705 23.8188C14.6705 21.4731 10.0862 19.749 10.0862 19.749Z" fill="#1E1E1E" fill-opacity="0.8"/>
<path d="M20.0625 11C20.0625 11 21.1735 15.7701 23.2642 17.8608C25.3549 19.9515 30.125 21.0625 30.125 21.0625C30.125 21.0625 25.3549 22.1735 23.2642 24.2642C21.1735 26.3549 20.0625 31.125 20.0625 31.125C20.0625 31.125 18.9515 26.3549 16.8608 24.2642C14.7701 22.1735 9.99999 21.0625 9.99999 21.0625C9.99999 21.0625 14.7701 19.9515 16.8608 17.8608C18.9515 15.7701 20.0625 11 20.0625 11Z" fill="#FAFAFA"/>
<defs>
<linearGradient id="paint0_linear_16_3574" x1="20" y1="0" x2="20" y2="34" gradientUnits="userSpaceOnUse">
<stop stop-color="#FF007B"/>
<stop offset="1" stop-color="#00C4FF"/>
</linearGradient>
</defs>
</svg>
